<?xml version="1.0" encoding="UTF-8" standalone="no"?>
<!-- Created with Inkscape (http://www.inkscape.org/) -->

<svg
        width="1em"
        height="1em"
        viewBox="0 0 256 256"
        version="1.1"
        id="svg1"
        xml:space="preserve"
        xmlns="http://www.w3.org/2000/svg"
        xmlns:svg="http://www.w3.org/2000/svg"><defs
     id="defs1" />
    <path
            fill="currentColor"
            d="M 223.13909,126.7559 188.06696,91.683761 a 7.5154572,7.5154572 0 0 0 -5.31718,-2.204534 h -60.12366 a 12.525762,12.525762 0 0 0 -12.52577,12.525763 v 110.2267 a 12.525762,12.525762 0 0 0 12.52577,12.52577 h 90.18547 a 12.525762,12.525762 0 0 0 12.52577,-12.52577 v -80.16487 a 7.5154572,7.5154572 0 0 0 -2.19827,-5.31092 m -35.37901,-14.10401 14.40463,14.40463 h -14.40463 z m -62.62881,97.07465 V 104.51015 h 47.59789 v 30.06183 a 7.5154572,7.5154572 0 0 0 7.51547,7.51545 h 30.06181 v 67.63911 z"
            id="path1"
    />
    <path
            fill="currentColor"
            id="path1-0"
            style="opacity:.6"
            d="M 49.828125,32.396484 A 12.525762,12.525762 0 0 0 37.302734,44.921875 V 155.14844 a 12.525762,12.525762 0 0 0 12.525391,12.52539 H 107 V 152.64258 H 52.333984 V 47.427734 h 47.597657 v 30.060547 a 7.5154572,7.5154572 0 0 0 7.515629,7.515625 h 30.06054 v 1.222656 h 15.03125 V 74.984375 A 7.5154572,7.5154572 0 0 0 150.3418,69.673828 L 115.26953,34.601562 a 7.5154572,7.5154572 0 0 0 -5.31836,-2.205078 z m 65.134765,23.171875 14.4043,14.404297 h -14.4043 z"/>
    <path
            fill="currentColor"
            d="m 198.6044,170.98293 a 3.0318992,3.0318992 0 1 0 -4.28508,-4.28913 l -12.15186,12.14781 -12.14781,-12.14781 a 3.0318992,3.0318992 0 1 0 -4.28508,4.28509 l 12.13972,12.15185 -12.14781,12.14781 a 3.0318992,3.0318992 0 0 0 4.28509,4.28508 l 12.15589,-12.14781 12.14781,12.15185 a 3.0318992,3.0318992 0 0 0 4.28509,-4.28508 l -12.13973,-12.15185 z"
            id="path1-8"
            style="fill-opacity:1;stroke:currentColor;stroke-width:6;stroke-dasharray:none;stroke-opacity:1"/>
    <path
            fill="currentColor"
            id="path1-7"
            style="opacity:.6"
            d="m 52.132813,170.75 v 10.66016 c 0,9.2382 7.617259,16.85742 16.855468,16.85742 h 18.085937 l -3.328125,3.32812 a 6.0000001,6.0000001 0 0 0 0,8.48243 6.0000001,6.0000001 0 0 0 8.482422,0 l 13.509765,-13.51172 a 6.0000001,6.0000001 0 0 0 0.39453,-0.42383 6.0000001,6.0000001 0 0 0 0.25194,-0.32227 6.0006001,6.0006001 0 0 0 0.0703,-0.0957 6.0000001,6.0000001 0 0 0 0.2168,-0.33008 6.0006001,6.0006001 0 0 0 0.0645,-0.11133 6.0000001,6.0000001 0 0 0 0.19532,-0.36133 6.0006001,6.0006001 0 0 0 0.0312,-0.0664 6.0000001,6.0000001 0 0 0 0.17969,-0.4082 6.0006001,6.0006001 0 0 0 0,-0.002 6.0000001,6.0000001 0 0 0 0.28321,-0.94727 6.0000001,6.0000001 0 0 0 0.0801,-0.49024 6.0000001,6.0000001 0 0 0 0.0371,-0.44726 6.0006001,6.0006001 0 0 0 0.004,-0.084 6.0000001,6.0000001 0 0 0 0.01,-0.20898 6.0000001,6.0000001 0 0 0 -0.01,-0.21093 6.0006001,6.0006001 0 0 0 -0.004,-0.084 6.0000001,6.0000001 0 0 0 -0.0371,-0.44727 6.0000001,6.0000001 0 0 0 -0.0801,-0.48828 6.0000001,6.0000001 0 0 0 -0.28321,-0.94921 6.0000001,6.0000001 0 0 0 -0.18164,-0.41407 6.0006001,6.0006001 0 0 0 -0.0293,-0.0625 6.0000001,6.0000001 0 0 0 -0.19142,-0.35547 6.0006001,6.0006001 0 0 0 -0.0762,-0.12696 6.0000001,6.0000001 0 0 0 -0.20898,-0.31836 6.0006001,6.0006001 0 0 0 -0.0781,-0.10351 6.0000001,6.0000001 0 0 0 -0.23829,-0.30859 6.0000001,6.0000001 0 0 0 -0.006,-0.008 6.0006001,6.0006001 0 0 0 -0.0469,-0.0508 6.0000001,6.0000001 0 0 0 -0.34571,-0.37109 L 92.228515,174.45703 a 6.0000001,6.0000001 0 0 0 -4.242187,-1.75976 6.0000001,6.0000001 0 0 0 -4.240235,1.75976 6.0000001,6.0000001 0 0 0 0,8.48047 l 3.328125,3.32813 H 68.988281 c -2.752953,0 -4.855469,-2.10252 -4.855469,-4.85547 V 170.75 Z"/></svg>
