<?xml version="1.0" encoding="UTF-8" standalone="no"?>
<!-- Created with Inkscape (http://www.inkscape.org/) -->

<svg
        width="1em"
        height="1em"
        viewBox="0 0 256 256"
        version="1.1"
        id="svg1"
        xml:space="preserve"
        xmlns="http://www.w3.org/2000/svg"
        xmlns:svg="http://www.w3.org/2000/svg"><defs
     id="defs1" />
    <path
            id="path1"
            fill="currentColor"
            d="m 155.5,89.478516 v 15.031254 h 17.22852 v 30.0625 a 7.5154572,7.5154572 0 0 0 7.51562,7.51562 h 30.0625 v 67.63867 H 125.13086 V 170 h -15.03125 v 42.23242 a 12.525762,12.525762 0 0 0 12.52734,12.52539 h 90.18555 a 12.525762,12.525762 0 0 0 12.52539,-12.52539 v -80.16601 a 7.5154572,7.5154572 0 0 0 -2.19922,-5.31055 L 188.06641,91.683594 A 7.5154572,7.5154572 0 0 0 182.75,89.478516 Z m 32.25977,23.173824 14.40429,14.4043 h -14.40429 z"/>
    <path
            fill="currentColor"
            d="M 150.28874,69.52667 115.21661,34.45453 A 7.5154572,7.5154572 0 0 0 109.89943,32.25 H 49.77577 A 12.525762,12.525762 0 0 0 37.25,44.77576 v 110.2267 a 12.525762,12.525762 0 0 0 12.52577,12.52577 h 90.18547 a 12.525762,12.525762 0 0 0 12.52577,-12.52577 V 74.83759 a 7.5154572,7.5154572 0 0 0 -2.19827,-5.31092 M 114.90973,55.42266 129.31436,69.82729 H 114.90973 Z M 52.28092,152.49731 V 47.28092 h 47.59789 v 30.06183 a 7.5154572,7.5154572 0 0 0 7.51547,7.51545 h 30.06181 v 67.63911 z"
            id="path1-2"
            style="opacity:.6"
    />
    <path
            fill="currentColor"
            d="m 198.6044,170.98293 a 3.0318992,3.0318992 0 1 0 -4.28508,-4.28913 l -12.15186,12.14781 -12.14781,-12.14781 a 3.0318992,3.0318992 0 1 0 -4.28508,4.28509 l 12.13972,12.15185 -12.14781,12.14781 a 3.0318992,3.0318992 0 0 0 4.28509,4.28508 l 12.15589,-12.14781 12.14781,12.15185 a 3.0318992,3.0318992 0 0 0 4.28509,-4.28508 l -12.13973,-12.15185 z"
            id="path1-8"
            style="stroke:currentColor;stroke-width:6;stroke-dasharray:none"/>
    <path
            id="path1-7"
            fill="currentColor"
            style="opacity:.6"
            d="m 52.132813,170.75 v 10.66016 c 0,9.2382 7.617259,16.85742 16.855468,16.85742 h 18.085937 l -3.328125,3.32812 a 6.0000001,6.0000001 0 0 0 0,8.48243 6.0000001,6.0000001 0 0 0 8.482422,0 l 13.509765,-13.51172 a 6.0000001,6.0000001 0 0 0 0.39453,-0.42383 6.0000001,6.0000001 0 0 0 0.25194,-0.32227 6.0006001,6.0006001 0 0 0 0.0703,-0.0957 6.0000001,6.0000001 0 0 0 0.2168,-0.33008 6.0006001,6.0006001 0 0 0 0.0645,-0.11133 6.0000001,6.0000001 0 0 0 0.19532,-0.36133 6.0006001,6.0006001 0 0 0 0.0312,-0.0664 6.0000001,6.0000001 0 0 0 0.17969,-0.4082 6.0006001,6.0006001 0 0 0 0,-0.002 6.0000001,6.0000001 0 0 0 0.28321,-0.94727 6.0000001,6.0000001 0 0 0 0.0801,-0.49024 6.0000001,6.0000001 0 0 0 0.0371,-0.44726 6.0006001,6.0006001 0 0 0 0.004,-0.084 6.0000001,6.0000001 0 0 0 0.01,-0.20898 6.0000001,6.0000001 0 0 0 -0.01,-0.21093 6.0006001,6.0006001 0 0 0 -0.004,-0.084 6.0000001,6.0000001 0 0 0 -0.0371,-0.44727 6.0000001,6.0000001 0 0 0 -0.0801,-0.48828 6.0000001,6.0000001 0 0 0 -0.28321,-0.94921 6.0000001,6.0000001 0 0 0 -0.18164,-0.41407 6.0006001,6.0006001 0 0 0 -0.0293,-0.0625 6.0000001,6.0000001 0 0 0 -0.19142,-0.35547 6.0006001,6.0006001 0 0 0 -0.0762,-0.12696 6.0000001,6.0000001 0 0 0 -0.20898,-0.31836 6.0006001,6.0006001 0 0 0 -0.0781,-0.10351 6.0000001,6.0000001 0 0 0 -0.23829,-0.30859 6.0000001,6.0000001 0 0 0 -0.006,-0.008 6.0006001,6.0006001 0 0 0 -0.0469,-0.0508 6.0000001,6.0000001 0 0 0 -0.34571,-0.37109 L 92.228515,174.45703 a 6.0000001,6.0000001 0 0 0 -4.242187,-1.75976 6.0000001,6.0000001 0 0 0 -4.240235,1.75976 6.0000001,6.0000001 0 0 0 0,8.48047 l 3.328125,3.32813 H 68.988281 c -2.752953,0 -4.855469,-2.10252 -4.855469,-4.85547 V 170.75 Z"/></svg>
