<?xml version="1.0" encoding="UTF-8" standalone="no"?>
<!-- Created with Inkscape (http://www.inkscape.org/) -->

<svg
   width="256"
   height="256"
   viewBox="0 0 256 256"
   version="1.1"
   id="svg1"
   xml:space="preserve"
   inkscape:version="1.3.2 (091e20e, 2023-11-25, custom)"
   sodipodi:docname="override.svg"
   inkscape:export-filename="override-down.svg"
   inkscape:export-xdpi="96"
   inkscape:export-ydpi="96"
   xmlns:inkscape="http://www.inkscape.org/namespaces/inkscape"
   xmlns:sodipodi="http://sodipodi.sourceforge.net/DTD/sodipodi-0.dtd"
   xmlns="http://www.w3.org/2000/svg"
   xmlns:svg="http://www.w3.org/2000/svg"><sodipodi:namedview
     id="namedview1"
     pagecolor="#ffffff"
     bordercolor="#000000"
     borderopacity="0.25"
     inkscape:showpageshadow="2"
     inkscape:pageopacity="0.0"
     inkscape:pagecheckerboard="0"
     inkscape:deskcolor="#d1d1d1"
     inkscape:document-units="mm"
     showgrid="true"
     inkscape:zoom="4"
     inkscape:cx="98"
     inkscape:cy="159.625"
     inkscape:window-width="3440"
     inkscape:window-height="1351"
     inkscape:window-x="-9"
     inkscape:window-y="-9"
     inkscape:window-maximized="1"
     inkscape:current-layer="svg1"><sodipodi:guide
       position="0,256"
       orientation="0,256"
       id="guide1"
       inkscape:locked="false" /><sodipodi:guide
       position="256,256"
       orientation="256,0"
       id="guide2"
       inkscape:locked="false" /><sodipodi:guide
       position="256,0"
       orientation="0,-256"
       id="guide3"
       inkscape:locked="false" /><sodipodi:guide
       position="0,0"
       orientation="-256,0"
       id="guide4"
       inkscape:locked="false" /><sodipodi:guide
       position="0,256"
       orientation="0,256"
       id="guide5"
       inkscape:locked="false" /><sodipodi:guide
       position="256,256"
       orientation="256,0"
       id="guide6"
       inkscape:locked="false" /><sodipodi:guide
       position="256,0"
       orientation="0,-256"
       id="guide7"
       inkscape:locked="false" /><sodipodi:guide
       position="0,0"
       orientation="-256,0"
       id="guide8"
       inkscape:locked="false" /><sodipodi:guide
       position="0,256"
       orientation="0,256"
       id="guide9"
       inkscape:locked="false" /><sodipodi:guide
       position="256,256"
       orientation="256,0"
       id="guide10"
       inkscape:locked="false" /><sodipodi:guide
       position="256,0"
       orientation="0,-256"
       id="guide11"
       inkscape:locked="false" /><sodipodi:guide
       position="0,0"
       orientation="-256,0"
       id="guide12"
       inkscape:locked="false" /><inkscape:grid
       id="grid12"
       units="px"
       originx="0"
       originy="0"
       spacingx="8"
       spacingy="8"
       empcolor="#0099e5"
       empopacity="0.30196078"
       color="#0099e5"
       opacity="0.14901961"
       empspacing="5"
       dotted="false"
       gridanglex="30"
       gridanglez="30"
       visible="true" /></sodipodi:namedview><defs
     id="defs1" /><path
     fill="currentColor"
     d="M 223.13909,126.7559 188.06696,91.683761 a 7.5154572,7.5154572 0 0 0 -5.31718,-2.204534 h -60.12366 a 12.525762,12.525762 0 0 0 -12.52577,12.525763 v 110.2267 a 12.525762,12.525762 0 0 0 12.52577,12.52577 h 90.18547 a 12.525762,12.525762 0 0 0 12.52577,-12.52577 v -80.16487 a 7.5154572,7.5154572 0 0 0 -2.19827,-5.31092 m -35.37901,-14.10401 14.40463,14.40463 h -14.40463 z m -62.62881,97.07465 V 104.51015 h 47.59789 v 30.06183 a 7.5154572,7.5154572 0 0 0 7.51547,7.51545 h 30.06181 v 67.63911 z"
     id="path1"
     style="stroke-width:0.626288" /><path
     id="path1-0"
     style="stroke-width:0.626288"
     d="M 49.828125 32.396484 A 12.525762 12.525762 0 0 0 37.302734 44.921875 L 37.302734 155.14844 A 12.525762 12.525762 0 0 0 49.828125 167.67383 L 107 167.67383 L 107 152.64258 L 52.333984 152.64258 L 52.333984 47.427734 L 99.931641 47.427734 L 99.931641 77.488281 A 7.5154572 7.5154572 0 0 0 107.44727 85.003906 L 137.50781 85.003906 L 137.50781 86.226562 L 152.53906 86.226562 L 152.53906 74.984375 A 7.5154572 7.5154572 0 0 0 150.3418 69.673828 L 115.26953 34.601562 A 7.5154572 7.5154572 0 0 0 109.95117 32.396484 L 49.828125 32.396484 z M 114.96289 55.568359 L 129.36719 69.972656 L 114.96289 69.972656 L 114.96289 55.568359 z " /><path
     fill="currentColor"
     d="m 198.6044,170.98293 a 3.0318992,3.0318992 0 1 0 -4.28508,-4.28913 l -12.15186,12.14781 -12.14781,-12.14781 a 3.0318992,3.0318992 0 1 0 -4.28508,4.28509 l 12.13972,12.15185 -12.14781,12.14781 a 3.0318992,3.0318992 0 0 0 4.28509,4.28508 l 12.15589,-12.14781 12.14781,12.15185 a 3.0318992,3.0318992 0 0 0 4.28509,-4.28508 l -12.13973,-12.15185 z"
     id="path1-8"
     style="stroke-width:6;stroke-dasharray:none;stroke:#000000;stroke-opacity:1;fill:#000000;fill-opacity:1" /><path
     id="path1-7"
     style="stroke-width:4.42151675;stroke:none;color:#000000;fill:#000000;-inkscape-stroke:none"
     d="M 1.7891703 7.0719176 L 1.7891703 10.999756 C 1.7891703 14.403662 4.5958238 17.211037 7.9997317 17.211037 L 14.663671 17.211037 L 13.437391 18.437317 A 2.2107584 2.2107584 0 0 0 13.437391 21.562748 A 2.2107584 2.2107584 0 0 0 16.562822 21.562748 L 21.540627 16.584224 A 2.2107584 2.2107584 0 0 0 21.685996 16.42806 A 2.2107584 2.2107584 0 0 0 21.77883 16.309318 A 2.2109795 2.2109795 0 0 0 21.804738 16.274055 A 2.2107584 2.2107584 0 0 0 21.884618 16.152435 A 2.2109795 2.2109795 0 0 0 21.908367 16.111415 A 2.2107584 2.2107584 0 0 0 21.980332 15.97828 A 2.2109795 2.2109795 0 0 0 21.991846 15.953812 A 2.2107584 2.2107584 0 0 0 22.058054 15.803406 A 2.2109795 2.2109795 0 0 0 22.058054 15.802686 A 2.2107584 2.2107584 0 0 0 22.162403 15.453657 A 2.2107584 2.2107584 0 0 0 22.191908 15.273025 A 2.2107584 2.2107584 0 0 0 22.205581 15.108226 A 2.2109795 2.2109795 0 0 0 22.207021 15.077281 A 2.2107584 2.2107584 0 0 0 22.210619 15.000279 A 2.2107584 2.2107584 0 0 0 22.207021 14.922557 A 2.2109795 2.2109795 0 0 0 22.205581 14.891612 A 2.2107584 2.2107584 0 0 0 22.191908 14.726812 A 2.2107584 2.2107584 0 0 0 22.162403 14.5469 A 2.2107584 2.2107584 0 0 0 22.058054 14.197152 A 2.2107584 2.2107584 0 0 0 21.991126 14.044586 A 2.2109795 2.2109795 0 0 0 21.980332 14.021557 A 2.2107584 2.2107584 0 0 0 21.909806 13.890582 A 2.2109795 2.2109795 0 0 0 21.88174 13.843804 A 2.2107584 2.2107584 0 0 0 21.804738 13.726502 A 2.2109795 2.2109795 0 0 0 21.775952 13.68836 A 2.2107584 2.2107584 0 0 0 21.688155 13.574656 A 2.2107584 2.2107584 0 0 0 21.685996 13.571778 A 2.2109795 2.2109795 0 0 0 21.668724 13.553067 A 2.2107584 2.2107584 0 0 0 21.541346 13.416334 L 16.562822 8.4378093 A 2.2107584 2.2107584 0 0 0 14.999747 7.7894066 A 2.2107584 2.2107584 0 0 0 13.437391 8.4378093 A 2.2107584 2.2107584 0 0 0 13.437391 11.562521 L 14.663671 12.788801 L 7.9997317 12.788801 C 6.9853793 12.788801 6.210687 12.014108 6.210687 10.999756 L 6.210687 7.0719176 L 1.7891703 7.0719176 z "
     transform="matrix(2.7140008,0,0,2.7140008,47.277003,151.55681)" /></svg>
